<svg id="Capa_1" enable-background="new 0 0 462.415 462.415" height="512" viewBox="0 0 462.415 462.415" width="512" xmlns="http://www.w3.org/2000/svg"><g><ellipse cx="231.331" cy="257.383" rx="45.125" ry="45.125" transform="matrix(.083 -.997 .997 .083 -44.255 466.697)"/><path d="m186.639 199.139c.728 2.012 2.313 3.597 4.325 4.325.763.277 1.567.423 2.379.432 1.294 0 2.564-.349 3.676-1.009 10.578-6.392 22.747-9.665 35.105-9.443 11.761.165 23.271 3.422 33.375 9.443 3.418 2.041 7.844.925 9.885-2.493.225-.376.415-.772.568-1.183l53.126-144.168c1.114-3.001.116-6.377-2.451-8.29-56.474-42.506-134.261-42.506-190.734 0-2.567 1.913-3.565 5.289-2.451 8.29z"/><path d="m461.351 280.522c-.366-3.168-2.77-5.718-5.911-6.271l-151.377-26.383c-3.923-.677-7.652 1.954-8.329 5.877-.076.44-.111.885-.104 1.331.273 24.562-12.923 47.303-34.384 59.253-3.417 2.043-4.53 6.469-2.487 9.886.163.272.344.534.541.782 16.291 19.895 80.158 100.197 96.232 119.948 2.036 2.444 5.434 3.265 8.362 2.018 32.241-13.983 59.238-37.8 77.13-68.047 17.153-29.768 24.28-64.264 20.327-98.394z"/><path d="m201.056 314.185c-21.391-12.082-34.449-34.906-34.024-59.469.021-2.132-.902-4.165-2.523-5.55-1.625-1.406-3.792-2.014-5.911-1.658l-151.448 25.589c-3.146.516-5.579 3.037-5.983 6.199-4.142 34.123 2.809 68.672 19.823 98.539 18.242 30.432 45.358 54.554 77.707 69.129.911.388 1.893.585 2.883.577 2.144.003 4.178-.948 5.55-2.595 16.507-19.751 79.292-100.341 95.944-119.876 2.556-3.052 2.154-7.598-.898-10.155-.327-.274-.678-.518-1.048-.73z"/></g></svg>